<mxfile host="Electron" agent="Mozilla/5.0 (X11; Linux x86_64) AppleWebKit/537.36 (KHTML, like Gecko) draw.io/26.0.4 Chrome/128.0.6613.186 Electron/32.2.5 Safari/537.36" version="26.0.4">
  <diagram name="Seite-1" id="iODxCp1avoaFvMeodK8v">
    <mxGraphModel dx="3245" dy="1103" grid="1" gridSize="10" guides="1" tooltips="1" connect="1" arrows="1" fold="1" page="1" pageScale="1" pageWidth="827" pageHeight="1169" math="0" shadow="0">
      <root>
        <mxCell id="0" />
        <mxCell id="1" parent="0" />
        <mxCell id="lOGelwZ3CNv0qnDS3XUj-28" value="" style="shape=flexArrow;endArrow=classic;startArrow=classic;html=1;rounded=0;fillColor=#f8cecc;strokeColor=#b85450;width=82.85714285714286;endSize=16.42857142857143;startWidth=24.897959183673475;startSize=12.142857142857144;endWidth=24.897959183673475;" edge="1" parent="1">
          <mxGeometry width="100" height="100" relative="1" as="geometry">
            <mxPoint x="-600" y="240" as="sourcePoint" />
            <mxPoint x="-430" y="240" as="targetPoint" />
            <Array as="points" />
          </mxGeometry>
        </mxCell>
        <mxCell id="lOGelwZ3CNv0qnDS3XUj-3" value="OS Container" style="swimlane;whiteSpace=wrap;html=1;" vertex="1" parent="1">
          <mxGeometry x="-1020" y="90" width="430" height="610" as="geometry" />
        </mxCell>
        <mxCell id="lOGelwZ3CNv0qnDS3XUj-18" value="" style="shape=flexArrow;endArrow=classic;startArrow=classic;html=1;rounded=0;strokeWidth=2;fillColor=#60a917;strokeColor=#2D7600;endSize=6;width=36.57142857142857;startSize=8.285714285714286;entryX=0.512;entryY=1.012;entryDx=0;entryDy=0;entryPerimeter=0;dashed=1;dashPattern=1 1;" edge="1" parent="lOGelwZ3CNv0qnDS3XUj-3" target="lOGelwZ3CNv0qnDS3XUj-2">
          <mxGeometry width="100" height="100" relative="1" as="geometry">
            <mxPoint x="199" y="340" as="sourcePoint" />
            <mxPoint x="170.10000000000002" y="255.55" as="targetPoint" />
            <Array as="points" />
          </mxGeometry>
        </mxCell>
        <mxCell id="lOGelwZ3CNv0qnDS3XUj-2" value="package&lt;div&gt;&lt;br&gt;&lt;/div&gt;&lt;div&gt;&lt;br&gt;&lt;/div&gt;&lt;div&gt;&lt;br&gt;&lt;/div&gt;&lt;div&gt;&lt;br&gt;&lt;/div&gt;&lt;div&gt;&lt;br&gt;&lt;/div&gt;&lt;div&gt;&lt;br&gt;&lt;/div&gt;&lt;div&gt;&lt;br&gt;&lt;/div&gt;&lt;div&gt;&lt;br&gt;&lt;/div&gt;&lt;div&gt;&lt;br&gt;&lt;/div&gt;&lt;div&gt;&lt;br&gt;&lt;/div&gt;&lt;div&gt;&lt;br&gt;&lt;/div&gt;&lt;div&gt;&lt;br&gt;&lt;/div&gt;" style="shape=folder;fontStyle=1;spacingTop=10;tabWidth=40;tabHeight=14;tabPosition=left;html=1;whiteSpace=wrap;" vertex="1" parent="lOGelwZ3CNv0qnDS3XUj-3">
          <mxGeometry x="20" y="40" width="350" height="210" as="geometry" />
        </mxCell>
        <mxCell id="lOGelwZ3CNv0qnDS3XUj-7" value="package&lt;div&gt;&lt;br&gt;&lt;/div&gt;&lt;div&gt;&lt;br&gt;&lt;/div&gt;&lt;div&gt;&lt;br&gt;&lt;/div&gt;&lt;div&gt;&lt;br&gt;&lt;/div&gt;&lt;div&gt;&lt;br&gt;&lt;/div&gt;&lt;div&gt;&lt;br&gt;&lt;/div&gt;&lt;div&gt;&lt;br&gt;&lt;/div&gt;&lt;div&gt;&lt;br&gt;&lt;/div&gt;&lt;div&gt;&lt;br&gt;&lt;/div&gt;&lt;div&gt;&lt;br&gt;&lt;/div&gt;&lt;div&gt;&lt;br&gt;&lt;/div&gt;&lt;div&gt;&lt;br&gt;&lt;/div&gt;" style="shape=folder;fontStyle=1;spacingTop=10;tabWidth=40;tabHeight=14;tabPosition=left;html=1;whiteSpace=wrap;" vertex="1" parent="lOGelwZ3CNv0qnDS3XUj-3">
          <mxGeometry x="20" y="330" width="350" height="210" as="geometry" />
        </mxCell>
        <mxCell id="lOGelwZ3CNv0qnDS3XUj-1" value="Module" style="shape=module;align=left;spacingLeft=20;align=center;verticalAlign=top;whiteSpace=wrap;html=1;" vertex="1" parent="lOGelwZ3CNv0qnDS3XUj-3">
          <mxGeometry x="50" y="410" width="100" height="50" as="geometry" />
        </mxCell>
        <mxCell id="lOGelwZ3CNv0qnDS3XUj-8" value="Module" style="shape=module;align=left;spacingLeft=20;align=center;verticalAlign=top;whiteSpace=wrap;html=1;" vertex="1" parent="lOGelwZ3CNv0qnDS3XUj-3">
          <mxGeometry x="230" y="410" width="100" height="50" as="geometry" />
        </mxCell>
        <mxCell id="lOGelwZ3CNv0qnDS3XUj-11" value="Module" style="shape=module;align=left;spacingLeft=20;align=center;verticalAlign=top;whiteSpace=wrap;html=1;" vertex="1" parent="lOGelwZ3CNv0qnDS3XUj-3">
          <mxGeometry x="230" y="130" width="100" height="50" as="geometry" />
        </mxCell>
        <mxCell id="lOGelwZ3CNv0qnDS3XUj-12" value="Module" style="shape=module;align=left;spacingLeft=20;align=center;verticalAlign=top;whiteSpace=wrap;html=1;" vertex="1" parent="lOGelwZ3CNv0qnDS3XUj-3">
          <mxGeometry x="50" y="130" width="100" height="50" as="geometry" />
        </mxCell>
        <mxCell id="lOGelwZ3CNv0qnDS3XUj-13" value="" style="shape=flexArrow;endArrow=classic;startArrow=classic;html=1;rounded=0;exitX=1;exitY=0.5;exitDx=0;exitDy=0;entryX=0.09;entryY=0.48;entryDx=0;entryDy=0;entryPerimeter=0;fillColor=#d5e8d4;strokeColor=#82b366;" edge="1" parent="lOGelwZ3CNv0qnDS3XUj-3" source="lOGelwZ3CNv0qnDS3XUj-1" target="lOGelwZ3CNv0qnDS3XUj-8">
          <mxGeometry width="100" height="100" relative="1" as="geometry">
            <mxPoint x="430" y="260" as="sourcePoint" />
            <mxPoint x="530" y="160" as="targetPoint" />
          </mxGeometry>
        </mxCell>
        <mxCell id="lOGelwZ3CNv0qnDS3XUj-14" value="" style="shape=flexArrow;endArrow=classic;startArrow=classic;html=1;rounded=0;exitX=0.6;exitY=0.94;exitDx=0;exitDy=0;entryX=0.5;entryY=0;entryDx=0;entryDy=0;fillColor=#d5e8d4;strokeColor=#82b366;exitPerimeter=0;" edge="1" parent="lOGelwZ3CNv0qnDS3XUj-3" source="lOGelwZ3CNv0qnDS3XUj-11" target="lOGelwZ3CNv0qnDS3XUj-8">
          <mxGeometry width="100" height="100" relative="1" as="geometry">
            <mxPoint x="160" y="445" as="sourcePoint" />
            <mxPoint x="249" y="444" as="targetPoint" />
            <Array as="points">
              <mxPoint x="200" y="250" />
              <mxPoint x="200" y="350" />
            </Array>
          </mxGeometry>
        </mxCell>
        <mxCell id="lOGelwZ3CNv0qnDS3XUj-15" value="" style="shape=flexArrow;endArrow=classic;startArrow=classic;html=1;rounded=0;fillColor=#d5e8d4;strokeColor=#82b366;" edge="1" parent="lOGelwZ3CNv0qnDS3XUj-3">
          <mxGeometry width="100" height="100" relative="1" as="geometry">
            <mxPoint y="670" as="sourcePoint" />
            <mxPoint x="110" y="670" as="targetPoint" />
            <Array as="points" />
          </mxGeometry>
        </mxCell>
        <mxCell id="lOGelwZ3CNv0qnDS3XUj-16" value="ZTA message integrity ans authenticity&lt;div&gt;&lt;br&gt;&lt;/div&gt;&lt;div&gt;&lt;br&gt;&lt;/div&gt;" style="edgeLabel;html=1;align=center;verticalAlign=middle;resizable=0;points=[];" vertex="1" connectable="0" parent="lOGelwZ3CNv0qnDS3XUj-15">
          <mxGeometry x="0.2364" y="2" relative="1" as="geometry">
            <mxPoint x="162" y="12" as="offset" />
          </mxGeometry>
        </mxCell>
        <mxCell id="lOGelwZ3CNv0qnDS3XUj-25" value="" style="shape=flexArrow;endArrow=classic;startArrow=classic;html=1;rounded=0;strokeWidth=2;fillColor=#60a917;strokeColor=#2D7600;endSize=6;width=36.57142857142857;startSize=8.285714285714286;entryX=0.003;entryY=0.5;entryDx=0;entryDy=0;entryPerimeter=0;dashed=1;dashPattern=1 2;" edge="1" parent="lOGelwZ3CNv0qnDS3XUj-3" target="lOGelwZ3CNv0qnDS3XUj-20">
          <mxGeometry width="100" height="100" relative="1" as="geometry">
            <mxPoint x="370" y="155" as="sourcePoint" />
            <mxPoint x="209" y="263" as="targetPoint" />
            <Array as="points" />
          </mxGeometry>
        </mxCell>
        <mxCell id="lOGelwZ3CNv0qnDS3XUj-4" value="OS Continer" style="swimlane;whiteSpace=wrap;html=1;" vertex="1" parent="1">
          <mxGeometry x="-440" y="90" width="410" height="610" as="geometry" />
        </mxCell>
        <mxCell id="lOGelwZ3CNv0qnDS3XUj-20" value="package&lt;div&gt;&lt;br&gt;&lt;/div&gt;&lt;div&gt;&lt;br&gt;&lt;/div&gt;&lt;div&gt;&lt;br&gt;&lt;/div&gt;&lt;div&gt;&lt;br&gt;&lt;/div&gt;&lt;div&gt;&lt;br&gt;&lt;/div&gt;&lt;div&gt;&lt;br&gt;&lt;/div&gt;&lt;div&gt;&lt;br&gt;&lt;/div&gt;&lt;div&gt;&lt;br&gt;&lt;/div&gt;&lt;div&gt;&lt;br&gt;&lt;/div&gt;&lt;div&gt;&lt;br&gt;&lt;/div&gt;&lt;div&gt;&lt;br&gt;&lt;/div&gt;&lt;div&gt;&lt;br&gt;&lt;/div&gt;" style="shape=folder;fontStyle=1;spacingTop=10;tabWidth=40;tabHeight=14;tabPosition=left;html=1;whiteSpace=wrap;" vertex="1" parent="lOGelwZ3CNv0qnDS3XUj-4">
          <mxGeometry x="30" y="50" width="350" height="210" as="geometry" />
        </mxCell>
        <mxCell id="lOGelwZ3CNv0qnDS3XUj-21" value="Module" style="shape=module;align=left;spacingLeft=20;align=center;verticalAlign=top;whiteSpace=wrap;html=1;" vertex="1" parent="lOGelwZ3CNv0qnDS3XUj-4">
          <mxGeometry x="60" y="130" width="100" height="50" as="geometry" />
        </mxCell>
        <mxCell id="lOGelwZ3CNv0qnDS3XUj-22" value="Module" style="shape=module;align=left;spacingLeft=20;align=center;verticalAlign=top;whiteSpace=wrap;html=1;" vertex="1" parent="lOGelwZ3CNv0qnDS3XUj-4">
          <mxGeometry x="240" y="130" width="100" height="50" as="geometry" />
        </mxCell>
        <mxCell id="lOGelwZ3CNv0qnDS3XUj-23" value="" style="shape=flexArrow;endArrow=classic;startArrow=classic;html=1;rounded=0;exitX=1;exitY=0.5;exitDx=0;exitDy=0;entryX=0.09;entryY=0.48;entryDx=0;entryDy=0;entryPerimeter=0;fillColor=#d5e8d4;strokeColor=#82b366;" edge="1" source="lOGelwZ3CNv0qnDS3XUj-21" target="lOGelwZ3CNv0qnDS3XUj-22" parent="lOGelwZ3CNv0qnDS3XUj-4">
          <mxGeometry width="100" height="100" relative="1" as="geometry">
            <mxPoint x="440" y="-20" as="sourcePoint" />
            <mxPoint x="540" y="-120" as="targetPoint" />
          </mxGeometry>
        </mxCell>
        <mxCell id="lOGelwZ3CNv0qnDS3XUj-17" value="" style="shape=flexArrow;endArrow=classic;startArrow=classic;html=1;rounded=0;fillColor=#60a917;strokeColor=#2D7600;dashed=1;dashPattern=1 2;" edge="1" parent="1">
          <mxGeometry width="100" height="100" relative="1" as="geometry">
            <mxPoint x="-1020" y="810" as="sourcePoint" />
            <mxPoint x="-910" y="810" as="targetPoint" />
          </mxGeometry>
        </mxCell>
        <mxCell id="lOGelwZ3CNv0qnDS3XUj-19" value="ZTA message integryty and authenticity + payload encryption (optional)" style="edgeLabel;html=1;align=center;verticalAlign=middle;resizable=0;points=[];" vertex="1" connectable="0" parent="lOGelwZ3CNv0qnDS3XUj-17">
          <mxGeometry x="0.2649" y="1" relative="1" as="geometry">
            <mxPoint x="240" y="1" as="offset" />
          </mxGeometry>
        </mxCell>
        <mxCell id="lOGelwZ3CNv0qnDS3XUj-24" value="" style="shape=flexArrow;endArrow=classic;startArrow=classic;html=1;rounded=0;exitX=1;exitY=0.5;exitDx=0;exitDy=0;entryX=0.09;entryY=0.52;entryDx=0;entryDy=0;entryPerimeter=0;fillColor=#d5e8d4;strokeColor=#82b366;" edge="1" parent="1" source="lOGelwZ3CNv0qnDS3XUj-11" target="lOGelwZ3CNv0qnDS3XUj-21">
          <mxGeometry width="100" height="100" relative="1" as="geometry">
            <mxPoint x="-270" y="255" as="sourcePoint" />
            <mxPoint x="-181" y="254" as="targetPoint" />
            <Array as="points" />
          </mxGeometry>
        </mxCell>
        <mxCell id="lOGelwZ3CNv0qnDS3XUj-26" value="" style="shape=flexArrow;endArrow=classic;startArrow=classic;html=1;rounded=0;fillColor=#f8cecc;strokeColor=#b85450;" edge="1" parent="1">
          <mxGeometry width="100" height="100" relative="1" as="geometry">
            <mxPoint x="-1020" y="860" as="sourcePoint" />
            <mxPoint x="-910" y="860" as="targetPoint" />
            <Array as="points" />
          </mxGeometry>
        </mxCell>
        <mxCell id="lOGelwZ3CNv0qnDS3XUj-27" value="&lt;div&gt;mTLS&lt;/div&gt;" style="edgeLabel;html=1;align=center;verticalAlign=middle;resizable=0;points=[];" vertex="1" connectable="0" parent="lOGelwZ3CNv0qnDS3XUj-26">
          <mxGeometry x="0.2364" y="2" relative="1" as="geometry">
            <mxPoint x="82" y="2" as="offset" />
          </mxGeometry>
        </mxCell>
      </root>
    </mxGraphModel>
  </diagram>
</mxfile>
